<?xml version="1.0" encoding="UTF-8" standalone="no"?>
<!-- Created with Inkscape (http://www.inkscape.org/) -->

<svg
   xmlns:dc="http://purl.org/dc/elements/1.1/"
   xmlns:cc="http://creativecommons.org/ns#"
   xmlns:rdf="http://www.w3.org/1999/02/22-rdf-syntax-ns#"
   xmlns:svg="http://www.w3.org/2000/svg"
   xmlns="http://www.w3.org/2000/svg"
   xmlns:sodipodi="http://sodipodi.sourceforge.net/DTD/sodipodi-0.dtd"
   xmlns:inkscape="http://www.inkscape.org/namespaces/inkscape"
   id="svg3004"
   version="1.1"
   inkscape:version="0.48.5 r10040"
   width="1215.9032"
   height="222.43964"
   xml:space="preserve"
   sodipodi:docname="vaunt_synth.svg"><metadata
     id="metadata3010"><rdf:RDF><cc:Work
         rdf:about=""><dc:format>image/svg+xml</dc:format><dc:type
           rdf:resource="http://purl.org/dc/dcmitype/StillImage" /><dc:title /></cc:Work></rdf:RDF></metadata><defs
     id="defs3008" /><sodipodi:namedview
     pagecolor="#ffffff"
     bordercolor="#666666"
     borderopacity="1"
     objecttolerance="10"
     gridtolerance="10"
     guidetolerance="10"
     inkscape:pageopacity="0"
     inkscape:pageshadow="2"
     inkscape:window-width="1920"
     inkscape:window-height="1025"
     id="namedview3006"
     showgrid="false"
     inkscape:zoom="2.8444445"
     inkscape:cx="249.22029"
     inkscape:cy="100.20802"
     inkscape:window-x="1918"
     inkscape:window-y="-3"
     inkscape:window-maximized="1"
     inkscape:current-layer="g3014"
     fit-margin-top="0"
     fit-margin-left="0"
     fit-margin-right="0"
     fit-margin-bottom="0" /><g
     id="g3012"
     inkscape:groupmode="layer"
     inkscape:label="ink_ext_XXXXXX"
     transform="matrix(1.25,0,0,-1.25,-308.90963,962.12073)"><g
       id="g3014"
       transform="scale(0.107975,0.107975)"><path
         d="m 10877.473,6438.9759 -533.45,0"
         style="fill:none;stroke:#000000;stroke-width:6.66817999;stroke-linecap:square;stroke-linejoin:miter;stroke-miterlimit:10;stroke-opacity:1;stroke-dasharray:none"
         id="path3808"
         inkscape:connector-curvature="0" /><path
         d="m 10877.473,6972.4359 0,-533.46"
         style="fill:none;stroke:#000000;stroke-width:6.66817999;stroke-linecap:square;stroke-linejoin:miter;stroke-miterlimit:10;stroke-opacity:1;stroke-dasharray:none"
         id="path3810"
         inkscape:connector-curvature="0" /><path
         d="m 10344.023,6972.4359 533.45,0"
         style="fill:none;stroke:#000000;stroke-width:6.66817999;stroke-linecap:square;stroke-linejoin:miter;stroke-miterlimit:10;stroke-opacity:1;stroke-dasharray:none"
         id="path3812"
         inkscape:connector-curvature="0" /><path
         d="m 10344.023,6438.9759 0,533.46"
         style="fill:none;stroke:#000000;stroke-width:6.66817999;stroke-linecap:square;stroke-linejoin:miter;stroke-miterlimit:10;stroke-opacity:1;stroke-dasharray:none"
         id="path3814"
         inkscape:connector-curvature="0" /><path
         d="m 11010.843,6839.0659 -133.37,0"
         style="fill:none;stroke:#000000;stroke-width:6.66817999;stroke-linecap:square;stroke-linejoin:miter;stroke-miterlimit:10;stroke-opacity:1;stroke-dasharray:none"
         id="path3816"
         inkscape:connector-curvature="0" /><path
         d="m 10710.773,6845.7359 -100.02,0"
         style="fill:none;stroke:#000000;stroke-width:6.66817999;stroke-linecap:square;stroke-linejoin:miter;stroke-miterlimit:10;stroke-opacity:1;stroke-dasharray:none"
         id="path3818"
         inkscape:connector-curvature="0" /><path
         d="m 10610.753,6565.6759 100.02,0"
         style="fill:none;stroke:#000000;stroke-width:6.66817999;stroke-linecap:square;stroke-linejoin:miter;stroke-miterlimit:10;stroke-opacity:1;stroke-dasharray:none"
         id="path3820"
         inkscape:connector-curvature="0" /><path
         d="m 10710.773,6659.0259 -100.02,0"
         style="fill:none;stroke:#000000;stroke-width:6.66817999;stroke-linecap:square;stroke-linejoin:miter;stroke-miterlimit:10;stroke-opacity:1;stroke-dasharray:none"
         id="path3822"
         inkscape:connector-curvature="0" /><path
         d="m 10710.773,6752.3859 -100.02,0"
         style="fill:none;stroke:#000000;stroke-width:6.66817999;stroke-linecap:square;stroke-linejoin:miter;stroke-miterlimit:10;stroke-opacity:1;stroke-dasharray:none"
         id="path3824"
         inkscape:connector-curvature="0" /><path
         d="m 10510.723,6739.0459 66.69,-33.34"
         style="fill:none;stroke:#000000;stroke-width:6.66817999;stroke-linecap:square;stroke-linejoin:miter;stroke-miterlimit:10;stroke-opacity:1;stroke-dasharray:none"
         id="path3826"
         inkscape:connector-curvature="0" /><path
         d="m 10510.723,6672.3659 66.69,33.34"
         style="fill:none;stroke:#000000;stroke-width:6.66817999;stroke-linecap:square;stroke-linejoin:miter;stroke-miterlimit:10;stroke-opacity:1;stroke-dasharray:none"
         id="path3828"
         inkscape:connector-curvature="0" /><path
         d="m 10610.753,6705.7059 -133.37,0"
         style="fill:none;stroke:#000000;stroke-width:6.66817999;stroke-linecap:square;stroke-linejoin:miter;stroke-miterlimit:10;stroke-opacity:1;stroke-dasharray:none"
         id="path3830"
         inkscape:connector-curvature="0" /><path
         d="m 10610.753,6565.6759 0,280.06"
         style="fill:none;stroke:#000000;stroke-width:6.66817999;stroke-linecap:square;stroke-linejoin:miter;stroke-miterlimit:10;stroke-opacity:1;stroke-dasharray:none"
         id="path3832"
         inkscape:connector-curvature="0" /><path
         d="m 10210.663,6705.7059 133.36,0"
         style="fill:none;stroke:#000000;stroke-width:6.66817999;stroke-linecap:square;stroke-linejoin:miter;stroke-miterlimit:10;stroke-opacity:1;stroke-dasharray:none"
         id="path3834"
         inkscape:connector-curvature="0" /><path
         d="m 11010.843,6572.3459 -133.37,0"
         style="fill:none;stroke:#000000;stroke-width:6.66817999;stroke-linecap:square;stroke-linejoin:miter;stroke-miterlimit:10;stroke-opacity:1;stroke-dasharray:none"
         id="path3836"
         inkscape:connector-curvature="0" /><path
         d="m 11010.843,6705.7059 -133.37,0"
         style="fill:none;stroke:#000000;stroke-width:6.66817999;stroke-linecap:square;stroke-linejoin:miter;stroke-miterlimit:10;stroke-opacity:1;stroke-dasharray:none"
         id="path3838"
         inkscape:connector-curvature="0" /><g
         id="g3840"
         transform="matrix(9.26136,0,0,9.26136,1208.6133,3438.2959)"><text
           transform="matrix(1,0,0,-1,964.8,309.6)"
           id="text3842"><tspan
             style="font-size:13px;font-variant:normal;font-weight:normal;writing-mode:lr-tb;fill:#000000;fill-opacity:1;fill-rule:nonzero;stroke:none;font-family:Helvetica;-inkscape-font-specification:Helvetica"
             x="0 9.3859997 12.272 19.5 26 32.5 36.113998 45.5 48.386002 54.886002 58.5 62.828999 65.714996 72.943001 80.170998 83.785004 86.670998 93.899002"
             y="0"
             sodipodi:role="line"
             id="tspan3844">Clock Distribution</tspan></text>
</g><path
         d="m 3210.4031,5638.1259 -533.45,0"
         style="fill:none;stroke:#000000;stroke-width:6.66817999;stroke-linecap:square;stroke-linejoin:miter;stroke-miterlimit:10;stroke-opacity:1;stroke-dasharray:none"
         id="path3846"
         inkscape:connector-curvature="0" /><path
         d="m 3210.4031,6171.5859 0,-533.46"
         style="fill:none;stroke:#000000;stroke-width:6.66817999;stroke-linecap:square;stroke-linejoin:miter;stroke-miterlimit:10;stroke-opacity:1;stroke-dasharray:none"
         id="path3848"
         inkscape:connector-curvature="0" /><path
         d="m 2676.9531,6171.5859 533.45,0"
         style="fill:none;stroke:#000000;stroke-width:6.66817999;stroke-linecap:square;stroke-linejoin:miter;stroke-miterlimit:10;stroke-opacity:1;stroke-dasharray:none"
         id="path3850"
         inkscape:connector-curvature="0" /><path
         d="m 2676.9531,5638.1259 0,533.46"
         style="fill:none;stroke:#000000;stroke-width:6.66817999;stroke-linecap:square;stroke-linejoin:miter;stroke-miterlimit:10;stroke-opacity:1;stroke-dasharray:none"
         id="path3852"
         inkscape:connector-curvature="0" /><path
         d="m 3342.4331,5905.5259 -133.36,0"
         style="fill:none;stroke:#000000;stroke-width:6.66817999;stroke-linecap:square;stroke-linejoin:miter;stroke-miterlimit:10;stroke-opacity:1;stroke-dasharray:none"
         id="path3854"
         inkscape:connector-curvature="0" /><path
         d="m 2942.4731,5905.4259 c -10.25,20.11 -30.91,32.77 -53.48,32.77 -22.18,0 -42.57,-12.24 -52.99,-31.84"
         style="fill:none;stroke:#000000;stroke-width:6.66817999;stroke-linecap:square;stroke-linejoin:miter;stroke-miterlimit:10;stroke-opacity:1;stroke-dasharray:none"
         id="path3856"
         inkscape:connector-curvature="0" /><path
         d="m 2942.2131,5905.6159 c 10.24,-20.11 30.91,-32.77 53.47,-32.77 22.19,0 42.57,12.25 52.99,31.84"
         style="fill:none;stroke:#000000;stroke-width:6.66817999;stroke-linecap:square;stroke-linejoin:miter;stroke-miterlimit:10;stroke-opacity:1;stroke-dasharray:none"
         id="path3858"
         inkscape:connector-curvature="0" /><path
         d="m 3109.0431,5905.5259 c 0,92.06 -74.64,166.7 -166.7,166.7 -92.07,0 -166.71,-74.64 -166.71,-166.7 0,-92.07 74.64,-166.71 166.71,-166.71 92.06,0 166.7,74.64 166.7,166.71"
         style="fill:none;stroke:#000000;stroke-width:6.66817999;stroke-linecap:square;stroke-linejoin:miter;stroke-miterlimit:10;stroke-opacity:1;stroke-dasharray:none"
         id="path3860"
         inkscape:connector-curvature="0" /><g
         id="g3862"
         transform="matrix(9.26136,0,0,9.26136,1208.6133,3438.2959)"><text
           transform="matrix(1,0,0,-1,115.2,223.2)"
           id="text3864"><tspan
             style="font-size:13px;font-variant:normal;font-weight:normal;writing-mode:lr-tb;fill:#000000;fill-opacity:1;fill-rule:nonzero;stroke:none;font-family:Helvetica;-inkscape-font-specification:Helvetica"
             sodipodi:role="line"
             id="tspan3866"
             y="0"
             x="0 7.2280002 14.456 25.285 34.671001 41.171001 44.785 54.171001 61.398998 65.013 72.240997 76.57 83.797997 91.026001 97.526001 104.754">10MHz Reference (±5ppb)</tspan></text>
</g><path
         d="m 11277.613,6839.0659 -266.77,0"
         style="fill:none;stroke:#000000;stroke-width:6.66817999;stroke-linecap:square;stroke-linejoin:miter;stroke-miterlimit:10;stroke-opacity:1;stroke-dasharray:none"
         id="path3868"
         inkscape:connector-curvature="0" /><path
         d="m 11277.613,6705.7059 -266.77,0"
         style="fill:none;stroke:#000000;stroke-width:6.66817999;stroke-linecap:square;stroke-linejoin:miter;stroke-miterlimit:10;stroke-opacity:1;stroke-dasharray:none"
         id="path3870"
         inkscape:connector-curvature="0" /><path
         d="m 11277.613,6572.3459 -266.77,0"
         style="fill:none;stroke:#000000;stroke-width:6.66817999;stroke-linecap:square;stroke-linejoin:miter;stroke-miterlimit:10;stroke-opacity:1;stroke-dasharray:none"
         id="path3872"
         inkscape:connector-curvature="0" /><path
         d="m 5409.5731,6305.6159 -533.46,0"
         style="fill:none;stroke:#000000;stroke-width:6.66817999;stroke-linecap:square;stroke-linejoin:miter;stroke-miterlimit:10;stroke-opacity:1;stroke-dasharray:none"
         id="path4334"
         inkscape:connector-curvature="0" /><path
         d="m 5409.5731,6839.0659 0,-533.45"
         style="fill:none;stroke:#000000;stroke-width:6.66817999;stroke-linecap:square;stroke-linejoin:miter;stroke-miterlimit:10;stroke-opacity:1;stroke-dasharray:none"
         id="path4336"
         inkscape:connector-curvature="0" /><path
         d="m 4876.1131,6839.0659 533.46,0"
         style="fill:none;stroke:#000000;stroke-width:6.66817999;stroke-linecap:square;stroke-linejoin:miter;stroke-miterlimit:10;stroke-opacity:1;stroke-dasharray:none"
         id="path4338"
         inkscape:connector-curvature="0" /><path
         d="m 4876.1131,6305.6159 0,533.45"
         style="fill:none;stroke:#000000;stroke-width:6.66817999;stroke-linecap:square;stroke-linejoin:miter;stroke-miterlimit:10;stroke-opacity:1;stroke-dasharray:none"
         id="path4340"
         inkscape:connector-curvature="0" /><path
         d="m 4742.7531,6572.3459 133.36,0"
         style="fill:none;stroke:#000000;stroke-width:6.66817999;stroke-linecap:square;stroke-linejoin:miter;stroke-miterlimit:10;stroke-opacity:1;stroke-dasharray:none"
         id="path4342"
         inkscape:connector-curvature="0" /><path
         d="m 5542.9331,6572.3459 -133.36,0"
         style="fill:none;stroke:#000000;stroke-width:6.66817999;stroke-linecap:square;stroke-linejoin:miter;stroke-miterlimit:10;stroke-opacity:1;stroke-dasharray:none"
         id="path4344"
         inkscape:connector-curvature="0" /><path
         d="m 5095.6931,6619.4959 c -12.51,-12.5 -19.53,-29.47 -19.53,-47.15 0,-36.83 29.85,-66.69 66.68,-66.69 36.82,0 66.68,29.86 66.68,66.69 0,36.82 -29.86,66.68 -66.68,66.68"
         style="fill:none;stroke:#000000;stroke-width:6.66817999;stroke-linecap:square;stroke-linejoin:miter;stroke-miterlimit:10;stroke-opacity:1;stroke-dasharray:none"
         id="path4346"
         inkscape:connector-curvature="0" /><path
         d="m 5142.8431,6438.9759 0,200.05"
         style="fill:none;stroke:#000000;stroke-width:6.66817999;stroke-linecap:square;stroke-linejoin:miter;stroke-miterlimit:10;stroke-opacity:1;stroke-dasharray:none"
         id="path4348"
         inkscape:connector-curvature="0" /><path
         d="m 5142.8431,6172.2559 0,133.36"
         style="fill:none;stroke:#000000;stroke-width:6.66817999;stroke-linecap:square;stroke-linejoin:miter;stroke-miterlimit:10;stroke-opacity:1;stroke-dasharray:none"
         id="path4350"
         inkscape:connector-curvature="0" /><g
         id="g4352"
         transform="matrix(9.26136,0,0,9.26136,1208.6133,3438.2959)"><text
           transform="matrix(1,0,0,-1,345.6,295.2)"
           id="text4354"><tspan
             style="font-size:13px;font-variant:normal;font-weight:normal;writing-mode:lr-tb;fill:#000000;fill-opacity:1;fill-rule:nonzero;stroke:none;font-family:Helvetica;-inkscape-font-specification:Helvetica"
             x="0 9.3859997 12.272 19.5 26 32.5 36.113998 46.228001 53.456001 60.683998 67.912003 72.240997 79.469002 83.083 85.969002 93.196999 100.425 104.039 111.267 118.495 125.723 129.33701 138.008 145.23599"
             y="0"
             sodipodi:role="line"
             id="tspan4356">Clock Generation and PLL</tspan></text>
</g><path
         d="m 7211.3131,6304.9459 -533.46,0"
         style="fill:none;stroke:#000000;stroke-width:6.66817999;stroke-linecap:square;stroke-linejoin:miter;stroke-miterlimit:10;stroke-opacity:1;stroke-dasharray:none"
         id="path4358"
         inkscape:connector-curvature="0" /><path
         d="m 7211.3131,6838.4059 0,-533.46"
         style="fill:none;stroke:#000000;stroke-width:6.66817999;stroke-linecap:square;stroke-linejoin:miter;stroke-miterlimit:10;stroke-opacity:1;stroke-dasharray:none"
         id="path4360"
         inkscape:connector-curvature="0" /><path
         d="m 6677.8531,6838.4059 533.46,0"
         style="fill:none;stroke:#000000;stroke-width:6.66817999;stroke-linecap:square;stroke-linejoin:miter;stroke-miterlimit:10;stroke-opacity:1;stroke-dasharray:none"
         id="path4362"
         inkscape:connector-curvature="0" /><path
         d="m 6677.8531,6304.9459 0,533.46"
         style="fill:none;stroke:#000000;stroke-width:6.66817999;stroke-linecap:square;stroke-linejoin:miter;stroke-miterlimit:10;stroke-opacity:1;stroke-dasharray:none"
         id="path4364"
         inkscape:connector-curvature="0" /><path
         d="m 7343.3431,6572.3459 -133.37,0"
         style="fill:none;stroke:#000000;stroke-width:6.66817999;stroke-linecap:square;stroke-linejoin:miter;stroke-miterlimit:10;stroke-opacity:1;stroke-dasharray:none"
         id="path4366"
         inkscape:connector-curvature="0" /><path
         d="m 6943.3831,6572.2459 c -10.25,20.11 -30.91,32.77 -53.48,32.77 -22.19,0 -42.57,-12.25 -52.99,-31.84"
         style="fill:none;stroke:#000000;stroke-width:6.66817999;stroke-linecap:square;stroke-linejoin:miter;stroke-miterlimit:10;stroke-opacity:1;stroke-dasharray:none"
         id="path4368"
         inkscape:connector-curvature="0" /><path
         d="m 6943.1231,6572.4359 c 10.24,-20.1 30.91,-32.77 53.47,-32.77 22.19,0 42.57,12.25 52.99,31.84"
         style="fill:none;stroke:#000000;stroke-width:6.66817999;stroke-linecap:square;stroke-linejoin:miter;stroke-miterlimit:10;stroke-opacity:1;stroke-dasharray:none"
         id="path4370"
         inkscape:connector-curvature="0" /><path
         d="m 7109.9531,6572.3459 c 0,92.06 -74.64,166.7 -166.7,166.7 -92.07,0 -166.71,-74.64 -166.71,-166.7 0,-92.07 74.64,-166.71 166.71,-166.71 92.06,0 166.7,74.64 166.7,166.71"
         style="fill:none;stroke:#000000;stroke-width:6.66817999;stroke-linecap:square;stroke-linejoin:miter;stroke-miterlimit:10;stroke-opacity:1;stroke-dasharray:none"
         id="path4372"
         inkscape:connector-curvature="0" /><g
         id="g4374"
         transform="matrix(9.26136,0,0,9.26136,1208.6133,3438.2959)"><text
           transform="matrix(1,0,0,-1,568.8,295.2)"
           id="text4376"><tspan
             style="font-size:13px;font-variant:normal;font-weight:normal;writing-mode:lr-tb;fill:#000000;fill-opacity:1;fill-rule:nonzero;stroke:none;font-family:Helvetica;-inkscape-font-specification:Helvetica"
             x="0 3.6140001 10.842 14.456 18.07 25.298 32.526001 39.754002 50.583 59.969002 66.469002 70.083 79.469002 86.696999"
             y="0"
             sodipodi:role="line"
             id="tspan4378">Int 100MHz Ref</tspan><tspan
             style="font-size:13px;font-variant:normal;font-weight:normal;writing-mode:lr-tb;fill:#000000;fill-opacity:1;fill-rule:nonzero;stroke:none;font-family:Helvetica;-inkscape-font-specification:Helvetica"
             x="-7.19977 2.1862299 10.85723 20.243231 29.62923 37.22123 44.44923 51.677231 58.905231 66.497231 73.725227 80.953232 88.181229 91.795227 99.023232 106.25123"
             y="-79.199997"
             sodipodi:role="line"
             id="tspan4380">CVHD−950−100.000</tspan><tspan
             style="font-size:13px;font-variant:normal;font-weight:normal;writing-mode:lr-tb;fill:#000000;fill-opacity:1;fill-rule:nonzero;stroke:none;font-family:Helvetica;-inkscape-font-specification:Helvetica"
             x="-446.39978 -437.72876 -427.61478 -418.22876 -411.72876 -403.05777 -395.46576 -388.23776 -381.00977 -377.39578 -370.16776 -362.93976 -355.71176 -344.88278 -335.49677"
             y="-7.1999998"
             sodipodi:role="line"
             id="tspan4382">AOCJY−10.000MHZ</tspan><tspan
             style="font-size:13px;font-variant:normal;font-weight:normal;writing-mode:lr-tb;fill:#000000;fill-opacity:1;fill-rule:nonzero;stroke:none;font-family:Helvetica;-inkscape-font-specification:Helvetica"
             x="-187.19977 -177.81377 -166.98477 -157.59877 -150.37077 -143.14278 -135.91476 -128.68677 -117.85777 -109.18677 -101.95877"
             y="-79.199997"
             sodipodi:role="line"
             id="tspan4384">HMC1031MS8E</tspan></text>
</g><path
         d="m 5142.8431,5905.5259 0,266.73"
         style="fill:none;stroke:#000000;stroke-width:6.66817999;stroke-linecap:square;stroke-linejoin:miter;stroke-miterlimit:10;stroke-opacity:1;stroke-dasharray:none"
         id="path4386"
         inkscape:connector-curvature="0" /><path
         d="m 8476.9331,6305.6159 -533.46,0"
         style="fill:none;stroke:#000000;stroke-width:6.66817999;stroke-linecap:square;stroke-linejoin:miter;stroke-miterlimit:10;stroke-opacity:1;stroke-dasharray:none"
         id="path4388"
         inkscape:connector-curvature="0" /><path
         d="m 8476.9331,6839.0659 0,-533.45"
         style="fill:none;stroke:#000000;stroke-width:6.66817999;stroke-linecap:square;stroke-linejoin:miter;stroke-miterlimit:10;stroke-opacity:1;stroke-dasharray:none"
         id="path4390"
         inkscape:connector-curvature="0" /><path
         d="m 7943.4731,6839.0659 533.46,0"
         style="fill:none;stroke:#000000;stroke-width:6.66817999;stroke-linecap:square;stroke-linejoin:miter;stroke-miterlimit:10;stroke-opacity:1;stroke-dasharray:none"
         id="path4392"
         inkscape:connector-curvature="0" /><path
         d="m 7943.4731,6305.6159 0,533.45"
         style="fill:none;stroke:#000000;stroke-width:6.66817999;stroke-linecap:square;stroke-linejoin:miter;stroke-miterlimit:10;stroke-opacity:1;stroke-dasharray:none"
         id="path4394"
         inkscape:connector-curvature="0" /><path
         d="m 8610.2931,6705.7059 -133.36,0"
         style="fill:none;stroke:#000000;stroke-width:6.66817999;stroke-linecap:square;stroke-linejoin:miter;stroke-miterlimit:10;stroke-opacity:1;stroke-dasharray:none"
         id="path4396"
         inkscape:connector-curvature="0" /><path
         d="m 8310.2231,6712.3759 -100.02,0"
         style="fill:none;stroke:#000000;stroke-width:6.66817999;stroke-linecap:square;stroke-linejoin:miter;stroke-miterlimit:10;stroke-opacity:1;stroke-dasharray:none"
         id="path4398"
         inkscape:connector-curvature="0" /><path
         d="m 8210.2031,6432.3159 100.02,0"
         style="fill:none;stroke:#000000;stroke-width:6.66817999;stroke-linecap:square;stroke-linejoin:miter;stroke-miterlimit:10;stroke-opacity:1;stroke-dasharray:none"
         id="path4400"
         inkscape:connector-curvature="0" /><path
         d="m 8310.2231,6525.6659 -100.02,0"
         style="fill:none;stroke:#000000;stroke-width:6.66817999;stroke-linecap:square;stroke-linejoin:miter;stroke-miterlimit:10;stroke-opacity:1;stroke-dasharray:none"
         id="path4402"
         inkscape:connector-curvature="0" /><path
         d="m 8310.2231,6619.0159 -100.02,0"
         style="fill:none;stroke:#000000;stroke-width:6.66817999;stroke-linecap:square;stroke-linejoin:miter;stroke-miterlimit:10;stroke-opacity:1;stroke-dasharray:none"
         id="path4404"
         inkscape:connector-curvature="0" /><path
         d="m 8110.1831,6605.6859 66.68,-33.34"
         style="fill:none;stroke:#000000;stroke-width:6.66817999;stroke-linecap:square;stroke-linejoin:miter;stroke-miterlimit:10;stroke-opacity:1;stroke-dasharray:none"
         id="path4406"
         inkscape:connector-curvature="0" /><path
         d="m 8110.1831,6539.0059 66.68,33.34"
         style="fill:none;stroke:#000000;stroke-width:6.66817999;stroke-linecap:square;stroke-linejoin:miter;stroke-miterlimit:10;stroke-opacity:1;stroke-dasharray:none"
         id="path4408"
         inkscape:connector-curvature="0" /><path
         d="m 8210.2031,6572.3459 -133.36,0"
         style="fill:none;stroke:#000000;stroke-width:6.66817999;stroke-linecap:square;stroke-linejoin:miter;stroke-miterlimit:10;stroke-opacity:1;stroke-dasharray:none"
         id="path4410"
         inkscape:connector-curvature="0" /><path
         d="m 8210.2031,6432.3159 0,280.06"
         style="fill:none;stroke:#000000;stroke-width:6.66817999;stroke-linecap:square;stroke-linejoin:miter;stroke-miterlimit:10;stroke-opacity:1;stroke-dasharray:none"
         id="path4412"
         inkscape:connector-curvature="0" /><path
         d="m 7810.1131,6572.3459 133.36,0"
         style="fill:none;stroke:#000000;stroke-width:6.66817999;stroke-linecap:square;stroke-linejoin:miter;stroke-miterlimit:10;stroke-opacity:1;stroke-dasharray:none"
         id="path4414"
         inkscape:connector-curvature="0" /><path
         d="m 8610.2931,6438.9759 -133.36,0"
         style="fill:none;stroke:#000000;stroke-width:6.66817999;stroke-linecap:square;stroke-linejoin:miter;stroke-miterlimit:10;stroke-opacity:1;stroke-dasharray:none"
         id="path4416"
         inkscape:connector-curvature="0" /><g
         id="g4418"
         transform="matrix(9.26136,0,0,9.26136,1208.6133,3438.2959)"><text
           transform="matrix(1,0,0,-1,460.8,345.6)"
           id="text4420"><tspan
             style="font-size:13px;font-variant:normal;font-weight:normal;writing-mode:lr-tb;fill:#000000;fill-opacity:1;fill-rule:nonzero;stroke:none;font-family:Helvetica;-inkscape-font-specification:Helvetica"
             x="0 7.2280002 14.456 21.684 32.513 41.898998"
             y="0"
             sodipodi:role="line"
             id="tspan4422">100MHz</tspan><tspan
             style="font-size:13px;font-variant:normal;font-weight:normal;writing-mode:lr-tb;fill:#000000;fill-opacity:1;fill-rule:nonzero;stroke:none;font-family:Helvetica;-inkscape-font-specification:Helvetica"
             x="338.39999 345.62799 352.85599 360.08401 370.91299 380.29901"
             y="-14.4"
             sodipodi:role="line"
             id="tspan4424">100MHz</tspan></text>
</g><path
         d="m 10210.663,6705.7059 -1600.3699,0"
         style="fill:none;stroke:#000000;stroke-width:6.66817999;stroke-linecap:square;stroke-linejoin:miter;stroke-miterlimit:10;stroke-opacity:1;stroke-dasharray:none"
         id="path4426"
         inkscape:connector-curvature="0" /><g
         id="g4428"
         transform="matrix(9.26136,0,0,9.26136,1208.6133,3438.2959)"><text
           transform="matrix(1,0,0,-1,979.2,388.8)"
           id="text4430"><tspan
             style="font-size:13px;font-variant:normal;font-weight:normal;writing-mode:lr-tb;fill:#000000;fill-opacity:1;fill-rule:nonzero;stroke:none;font-family:Helvetica;-inkscape-font-specification:Helvetica"
             x="0 7.2280002 18.056999 26.728001 33.956001 41.183998 48.411999 55.639999 62.868"
             y="0"
             sodipodi:role="line"
             id="tspan4432">LMK04828B</tspan></text>
</g><path
         d="m 9010.3831,6438.9759 -400.09,0"
         style="fill:none;stroke:#000000;stroke-width:6.66817999;stroke-linecap:square;stroke-linejoin:miter;stroke-miterlimit:10;stroke-opacity:1;stroke-dasharray:none"
         id="path4434"
         inkscape:connector-curvature="0" /><g
         id="g4436"
         transform="matrix(9.26136,0,0,9.26136,1208.6133,3438.2959)"><text
           transform="matrix(1,0,0,-1,806.4,331.2)"
           id="text4438"><tspan
             style="font-size:13px;font-variant:normal;font-weight:normal;writing-mode:lr-tb;fill:#000000;fill-opacity:1;fill-rule:nonzero;stroke:none;font-family:Helvetica;-inkscape-font-specification:Helvetica"
             x="0 7.9429998 15.171 18.785 26.728001 31.056999 38.285 45.513 49.126999 52.741001 61.411999 67.912003 75.139999 78.753998 85.982002 89.596001 93.209999 101.881 109.109 116.337"
             y="0"
             sodipodi:role="line"
             id="tspan4440">To Freq. Synth. PLLs</tspan></text>
</g><path
         d="m 7543.3831,6572.3459 0,-666.82"
         style="fill:none;stroke:#000000;stroke-width:6.66817999;stroke-linecap:square;stroke-linejoin:miter;stroke-miterlimit:10;stroke-opacity:1;stroke-dasharray:none"
         id="path4442"
         inkscape:connector-curvature="0" /><path
         d="m 7543.3831,5905.5259 -2400.54,0"
         style="fill:none;stroke:#000000;stroke-width:6.66817999;stroke-linecap:square;stroke-linejoin:miter;stroke-miterlimit:10;stroke-opacity:1;stroke-dasharray:none"
         id="path4444"
         inkscape:connector-curvature="0" /><path
         d="m 6676.5231,6572.3459 -1133.59,0"
         style="fill:none;stroke:#000000;stroke-width:6.66817999;stroke-linecap:square;stroke-linejoin:miter;stroke-miterlimit:10;stroke-opacity:1;stroke-dasharray:none"
         id="path4446"
         inkscape:connector-curvature="0" /><path
         d="m 7810.1131,6572.3459 -466.77,0"
         style="fill:none;stroke:#000000;stroke-width:6.66817999;stroke-linecap:square;stroke-linejoin:miter;stroke-miterlimit:10;stroke-opacity:1;stroke-dasharray:none"
         id="path4448"
         inkscape:connector-curvature="0" /><path
         d="m 4609.3831,6572.3459 -200.04,0"
         style="fill:none;stroke:#000000;stroke-width:6.66817999;stroke-linecap:square;stroke-linejoin:miter;stroke-miterlimit:10;stroke-opacity:1;stroke-dasharray:none"
         id="path4450"
         inkscape:connector-curvature="0" /><path
         d="m 4009.2531,6705.7059 200.04,0"
         style="fill:none;stroke:#000000;stroke-width:6.66817999;stroke-linecap:square;stroke-linejoin:miter;stroke-miterlimit:10;stroke-opacity:1;stroke-dasharray:none"
         id="path4452"
         inkscape:connector-curvature="0" /><path
         d="m 4009.2531,6438.9759 200.04,0"
         style="fill:none;stroke:#000000;stroke-width:6.66817999;stroke-linecap:square;stroke-linejoin:miter;stroke-miterlimit:10;stroke-opacity:1;stroke-dasharray:none"
         id="path4454"
         inkscape:connector-curvature="0" /><path
         d="m 4742.7531,6572.3459 -133.37,0"
         style="fill:none;stroke:#000000;stroke-width:6.66817999;stroke-linecap:square;stroke-linejoin:miter;stroke-miterlimit:10;stroke-opacity:1;stroke-dasharray:none"
         id="path4470"
         inkscape:connector-curvature="0" /><path
         d="m 3609.1631,6438.9759 400.09,0"
         style="fill:none;stroke:#000000;stroke-width:6.66817999;stroke-linecap:square;stroke-linejoin:miter;stroke-miterlimit:10;stroke-opacity:1;stroke-dasharray:none"
         id="path4472"
         inkscape:connector-curvature="0" /><path
         d="m 3609.1631,5905.5259 0,533.45"
         style="fill:none;stroke:#000000;stroke-width:6.66817999;stroke-linecap:square;stroke-linejoin:miter;stroke-miterlimit:10;stroke-opacity:1;stroke-dasharray:none"
         id="path4474"
         inkscape:connector-curvature="0" /><path
         d="m 3342.4331,5905.5259 266.73,0"
         style="fill:none;stroke:#000000;stroke-width:6.66817999;stroke-linecap:square;stroke-linejoin:miter;stroke-miterlimit:10;stroke-opacity:1;stroke-dasharray:none"
         id="path4476"
         inkscape:connector-curvature="0" /><path
         d="m 3342.4331,6705.7059 -226.72,0"
         style="fill:none;stroke:#000000;stroke-width:6.66817999;stroke-linecap:square;stroke-linejoin:miter;stroke-miterlimit:10;stroke-opacity:1;stroke-dasharray:none"
         id="path4478"
         inkscape:connector-curvature="0" /><path
         d="m 3115.7131,6705.7059 c 0,36.82 -29.86,66.68 -66.68,66.68 -36.83,0 -66.68,-29.86 -66.68,-66.68 0,-36.82 29.85,-66.68 66.68,-66.68 36.82,0 66.68,29.86 66.68,66.68"
         style="fill:none;stroke:#000000;stroke-width:6.66817999;stroke-linecap:square;stroke-linejoin:miter;stroke-miterlimit:10;stroke-opacity:1;stroke-dasharray:none"
         id="path4480"
         inkscape:connector-curvature="0" /><g
         id="g4482"
         transform="matrix(9.26136,0,0,9.26136,1208.6133,3438.2959)"><text
           transform="matrix(1,0,0,-1,129.475,363.6)"
           id="text4484"><tspan
             style="font-size:13px;font-variant:normal;font-weight:normal;writing-mode:lr-tb;fill:#000000;fill-opacity:1;fill-rule:nonzero;stroke:none;font-family:Helvetica;-inkscape-font-specification:Helvetica"
             x="0 6.5 13.728 22.399 31.07 34.683998 42.276001 45.889999 53.118 60.346001 71.175003 80.560997 87.060997 90.675003 99.346001 105.846 109.46 113.074 116.688 126.074 133.302 136.916"
             y="0"
             sodipodi:role="line"
             id="tspan4486">J1SY − 10MHz Ext. Ref.</tspan></text>
</g><path
         d="m 4009.2531,6705.7059 -666.82,0"
         style="fill:none;stroke:#000000;stroke-width:6.66817999;stroke-linecap:square;stroke-linejoin:miter;stroke-miterlimit:10;stroke-opacity:1;stroke-dasharray:none"
         id="path4488"
         inkscape:connector-curvature="0" /><g
         id="g4490"
         transform="matrix(9.26136,0,0,9.26136,1208.6133,3438.2959)"><text
           transform="matrix(1,0,0,-1,403.2,280.8)"
           id="text4492"><tspan
             style="font-size:13px;font-variant:normal;font-weight:normal;writing-mode:lr-tb;fill:#000000;fill-opacity:1;fill-rule:nonzero;stroke:none;font-family:Helvetica;-inkscape-font-specification:Helvetica"
             x="0 7.2280002 10.842 20.228001 23.841999 32.513 39.741001"
             y="0"
             sodipodi:role="line"
             id="tspan4494">1:N PLL</tspan><tspan
             style="font-size:13px;font-variant:normal;font-weight:normal;writing-mode:lr-tb;fill:#000000;fill-opacity:1;fill-rule:nonzero;stroke:none;font-family:Helvetica;-inkscape-font-specification:Helvetica"
             x="316.79999 326.186 337.01501 346.401 353.629 360.85699 368.08499 375.31299 383.98401 391.21201"
             y="-93.600403"
             sodipodi:role="line"
             id="tspan4496">HMC987LP5E</tspan><tspan
             style="font-size:13px;font-variant:normal;font-weight:normal;writing-mode:lr-tb;fill:#000000;fill-opacity:1;fill-rule:nonzero;stroke:none;font-family:Helvetica;-inkscape-font-specification:Helvetica"
             x="295.1998 302.4278 306.04181 313.26981 316.88379 324.82681 332.05481 339.28281 342.89679 353.0108 360.2388 363.85281 367.4668 376.13779 383.36581 386.9798 390.59381 397.82181"
             y="-14.4004"
             sodipodi:role="line"
             id="tspan4498">1:9 Fan Out Buffer</tspan></text>
</g><path
         d="m 9943.9331,5972.2059 -226.72,0"
         style="fill:none;stroke:#000000;stroke-width:6.66817999;stroke-linecap:square;stroke-linejoin:miter;stroke-miterlimit:10;stroke-opacity:1;stroke-dasharray:none"
         id="path4500"
         inkscape:connector-curvature="0" /><path
         d="m 9717.2131,5972.2059 c 0,36.82 -29.86,66.68 -66.68,66.68 -36.83,0 -66.68,-29.86 -66.68,-66.68 0,-36.82 29.85,-66.68 66.68,-66.68 36.82,0 66.68,29.86 66.68,66.68"
         style="fill:none;stroke:#000000;stroke-width:6.66817999;stroke-linecap:square;stroke-linejoin:miter;stroke-miterlimit:10;stroke-opacity:1;stroke-dasharray:none"
         id="path4502"
         inkscape:connector-curvature="0" /><g
         id="g4504"
         transform="matrix(9.26136,0,0,9.26136,1208.6133,3438.2959)"><text
           transform="matrix(1,0,0,-1,883.457,284.4)"
           id="text4506"><tspan
             style="font-size:13px;font-variant:normal;font-weight:normal;writing-mode:lr-tb;fill:#000000;fill-opacity:1;fill-rule:nonzero;stroke:none;font-family:Helvetica;-inkscape-font-specification:Helvetica"
             x="0 6.5 13.728 22.399 30.341999 33.956001 41.548 45.161999 53.833 60.333 63.946999 67.560997 71.175003 79.846001 89.232002"
             y="0"
             sodipodi:role="line"
             id="tspan4508">J7ST − Ext. VCO</tspan></text>
</g><path
         d="m 9943.9331,5638.7959 -226.72,0"
         style="fill:none;stroke:#000000;stroke-width:6.66817999;stroke-linecap:square;stroke-linejoin:miter;stroke-miterlimit:10;stroke-opacity:1;stroke-dasharray:none"
         id="path4510"
         inkscape:connector-curvature="0" /><path
         d="m 9717.2131,5638.7959 c 0,36.82 -29.86,66.68 -66.68,66.68 -36.83,0 -66.68,-29.86 -66.68,-66.68 0,-36.82 29.85,-66.68 66.68,-66.68 36.82,0 66.68,29.86 66.68,66.68"
         style="fill:none;stroke:#000000;stroke-width:6.66817999;stroke-linecap:square;stroke-linejoin:miter;stroke-miterlimit:10;stroke-opacity:1;stroke-dasharray:none"
         id="path4512"
         inkscape:connector-curvature="0" /><g
         id="g4514"
         transform="matrix(9.26136,0,0,9.26136,1208.6133,3438.2959)"><text
           transform="matrix(1,0,0,-1,882.73,248.4)"
           id="text4516"><tspan
             style="font-size:13px;font-variant:normal;font-weight:normal;writing-mode:lr-tb;fill:#000000;fill-opacity:1;fill-rule:nonzero;stroke:none;font-family:Helvetica;-inkscape-font-specification:Helvetica"
             x="0 6.5 13.728 22.399 30.341999 33.956001 41.548 45.161999 53.833 60.333 63.946999 67.560997 71.175003 79.846001 86.346001 93.573997"
             y="0"
             sodipodi:role="line"
             id="tspan4518">J8ST − Ext. Sync</tspan></text>
</g><path
         d="m 10477.383,5972.2059 -533.4499,0"
         style="fill:none;stroke:#000000;stroke-width:6.66817999;stroke-linecap:square;stroke-linejoin:miter;stroke-miterlimit:10;stroke-opacity:1;stroke-dasharray:none"
         id="path4520"
         inkscape:connector-curvature="0" /><path
         d="m 10477.383,6438.9759 0,-466.77"
         style="fill:none;stroke:#000000;stroke-width:6.66817999;stroke-linecap:square;stroke-linejoin:miter;stroke-miterlimit:10;stroke-opacity:1;stroke-dasharray:none"
         id="path4522"
         inkscape:connector-curvature="0" /><path
         d="m 10677.433,5638.7959 -733.4999,0"
         style="fill:none;stroke:#000000;stroke-width:6.66817999;stroke-linecap:square;stroke-linejoin:miter;stroke-miterlimit:10;stroke-opacity:1;stroke-dasharray:none"
         id="path4524"
         inkscape:connector-curvature="0" /><path
         d="m 10677.433,6438.9759 0,-800.18"
         style="fill:none;stroke:#000000;stroke-width:6.66817999;stroke-linecap:square;stroke-linejoin:miter;stroke-miterlimit:10;stroke-opacity:1;stroke-dasharray:none"
         id="path4526"
         inkscape:connector-curvature="0" /><path
         d="m 11257.513,6819.0659 40.012,0 0,40.0078 -40.012,0 0,-40.0078 z"
         style="fill:#000000;fill-opacity:1;fill-rule:nonzero;stroke:none"
         id="path4558"
         inkscape:connector-curvature="0" /><path
         d="m 11257.513,6685.7059 40.012,0 0,40.0078 -40.012,0 0,-40.0078 z"
         style="fill:#000000;fill-opacity:1;fill-rule:nonzero;stroke:none"
         id="path4560"
         inkscape:connector-curvature="0" /><path
         d="m 11257.513,6552.3359 40.012,0 0,40.0078 -40.012,0 0,-40.0078 z"
         style="fill:#000000;fill-opacity:1;fill-rule:nonzero;stroke:none"
         id="path4562"
         inkscape:connector-curvature="0" /><path
         d="m 8990.3831,6418.9759 40.0078,0 0,40.0078 -40.0078,0 0,-40.0078 z"
         style="fill:#000000;fill-opacity:1;fill-rule:nonzero;stroke:none"
         id="path4582"
         inkscape:connector-curvature="0" /><path
         d="m 7560.0631,6572.3459 c 0,9.2 -7.47,16.66 -16.68,16.66 -9.2,0 -16.67,-7.46 -16.67,-16.66 0,-9.21 7.47,-16.67 16.67,-16.67 9.21,0 16.68,7.46 16.68,16.67"
         style="fill:#000000;fill-opacity:1;fill-rule:nonzero;stroke:none"
         id="path4584"
         inkscape:connector-curvature="0" /><path
         d="m 7560.0631,6572.3459 c 0,9.2 -7.47,16.66 -16.68,16.66 -9.2,0 -16.67,-7.46 -16.67,-16.66 0,-9.21 7.47,-16.67 16.67,-16.67 9.21,0 16.68,7.46 16.68,16.67"
         style="fill:#000000;fill-opacity:1;fill-rule:nonzero;stroke:none"
         id="path4586"
         inkscape:connector-curvature="0" /><path
         d="m 6656.5231,6552.3359 40.0078,0 0,40.0078 -40.0078,0 0,-40.0078 z"
         style="fill:#000000;fill-opacity:1;fill-rule:nonzero;stroke:none"
         id="path4588"
         inkscape:connector-curvature="0" /><path
         d="m 7560.0631,6572.3459 c 0,9.2 -7.47,16.66 -16.68,16.66 -9.2,0 -16.67,-7.46 -16.67,-16.66 0,-9.21 7.47,-16.67 16.67,-16.67 9.21,0 16.68,7.46 16.68,16.67"
         style="fill:#000000;fill-opacity:1;fill-rule:nonzero;stroke:none"
         id="path4590"
         inkscape:connector-curvature="0" /><path
         d="m 10457.383,6418.9759 40.008,0 0,40.0078 -40.008,0 0,-40.0078 z"
         style="fill:#000000;fill-opacity:1;fill-rule:nonzero;stroke:none"
         id="path4592"
         inkscape:connector-curvature="0" /><path
         d="m 10657.423,6418.9759 40.012,0 0,40.0078 -40.012,0 0,-40.0078 z"
         style="fill:#000000;fill-opacity:1;fill-rule:nonzero;stroke:none"
         id="path4594"
         inkscape:connector-curvature="0" /><path
         sodipodi:type="arc"
         style="fill:#ffffff;fill-opacity:1;stroke:#000000;stroke-opacity:1"
         id="path5373"
         sodipodi:cx="290.9772"
         sodipodi:cy="105.60129"
         sodipodi:rx="17.525753"
         sodipodi:ry="9.4465046"
         d="m 308.50296,105.60129 c 0,5.21716 -7.84655,9.4465 -17.52576,9.4465 -9.6792,0 -17.52575,-4.22934 -17.52575,-9.4465 0,-5.21716 7.84655,-9.446507 17.52575,-9.446507 9.67921,0 17.52576,4.229347 17.52576,9.446507 z"
         transform="matrix(2.0217506,0,0,-3.7156945,3602.9692,7095.298)" /><path
         sodipodi:type="arc"
         style="fill:#ffffff;fill-opacity:1;stroke:#000000;stroke-opacity:1"
         id="path5373-6"
         sodipodi:cx="290.9772"
         sodipodi:cy="105.60129"
         sodipodi:rx="17.525753"
         sodipodi:ry="9.4465046"
         d="m 308.50296,105.60129 c 0,5.21716 -7.84655,9.4465 -17.52576,9.4465 -9.6792,0 -17.52575,-4.22934 -17.52575,-9.4465 0,-5.21716 7.84655,-9.446507 17.52575,-9.446507 9.67921,0 17.52576,4.229347 17.52576,9.446507 z"
         transform="matrix(2.0596655,0,0,-3.6625625,3593.5992,6824.9214)" /></g></g></svg>